<?xml version="1.0" encoding="utf-8"?>
<!-- Generator: Adobe Illustrator 23.0.4, SVG Export Plug-In . SVG Version: 6.00 Build 0)  -->
<svg version="1.1" id="Layer_1" xmlns="http://www.w3.org/2000/svg" xmlns:xlink="http://www.w3.org/1999/xlink" x="0px" y="0px"
	 width="153px" height="52.8px" viewBox="0 0 153 52.8" style="enable-background:new 0 0 153 52.8;" xml:space="preserve">
<g>
	<path d="M40.3,26.4C42.3,13.9,39,0,24.7,0S2.5,14,0.5,26.4c-2,12.5,1.3,26.4,15.7,26.4C30.4,52.8,38.3,38.9,40.3,26.4z M14.9,26.4
		c0.5-3.2,2.4-13.5,7.7-13.5s3.8,10.4,3.3,13.5C25.4,29.6,23.5,40,18.2,40C12.9,39.9,14.3,29.6,14.9,26.4z"/>
	<path d="M77.2,37.4c1.1-6.9-1.9-11.1-8.7-11.6v-0.1c5.9,0,10.5-4.5,11.4-10.2C81.7,4.4,72.6,0.8,64.3,0.8H47.7l-8.2,51.1h18.9
		C71,51.9,76.2,43.7,77.2,37.4z M60.1,11.9h1.4c2.9,0,4.8,1.3,4.3,4.3c-0.5,3.3-3.4,4.5-6.3,4.5h-0.8L60.1,11.9z M55.4,40.9l1.6-9.8
		h1.1c3.3,0,5.7,1.4,5.2,4.9c-0.6,3.5-3.6,5-6.7,4.9C56.6,40.9,55.4,40.9,55.4,40.9z"/>
	<polygon points="78.2,51.9 104.4,51.9 106.3,39.9 94.2,39.9 95.5,32.1 106.3,32.1 108.3,20 97.4,20 98.6,12.9 110.7,12.9 
		112.6,0.8 86.4,0.8 	"/>
	<polygon points="118.4,52 132.5,51.9 136.1,30.3 153,0.8 138.4,0.8 130.9,16.6 130.8,16.6 128.5,0.8 113.8,0.8 122,30.2 	"/>
	<path d="M147.2,46c0-1.2-0.8-1.6-2.2-1.6h-2v5.3h1.2v-2.2h0.6l1.2,2.2h1.2l-1.4-2.3C146.6,47.4,147.1,47,147.2,46z M145.1,46.6h-1
		v-1.3h1c0.6,0,0.9,0.1,0.9,0.6C146,46.3,145.8,46.6,145.1,46.6z"/>
	<path d="M144.9,42.2c-2.6,0-5,1.8-5,4.8s2.4,4.8,5,4.8s5-1.8,5-4.8C150,44,147.6,42.3,144.9,42.2z M145,50.9
		c-2.1,0-3.7-1.6-3.7-3.9s1.6-3.9,3.7-3.9c2,0,3.7,1.6,3.7,3.9C148.7,49.4,147,51,145,50.9z"/>
</g>
</svg>
